<?xml version="1.0" standalone="no"?>
<!DOCTYPE svg PUBLIC "-//W3C//DTD SVG 20010904//EN"
 "http://www.w3.org/TR/2001/REC-SVG-20010904/DTD/svg10.dtd">
<svg version="1.0" xmlns="http://www.w3.org/2000/svg"
 width="1093.000000pt" height="1280.000000pt" viewBox="0 0 1093.000000 1280.000000"
 preserveAspectRatio="xMidYMid meet">
<g transform="translate(0.000000,1280.000000) scale(0.100000,-0.100000)"
fill="#673ab7" stroke="none">
<path d="M4959 12796 c-2 -2 -56 -9 -119 -16 -501 -50 -917 -188 -1345 -446
-226 -136 -446 -306 -711 -552 -972 -899 -1625 -1323 -2079 -1349 -157 -9
-245 17 -389 116 -100 68 -129 81 -178 81 -54 0 -97 -26 -122 -74 -18 -33 -18
-41 -6 -74 57 -162 262 -310 530 -382 420 -112 1013 59 1635 473 169 112 453
326 780 587 455 363 662 514 895 652 287 171 562 275 811 308 171 22 446 9
639 -31 467 -95 870 -308 1273 -673 97 -87 249 -255 244 -270 -2 -5 -66 -20
-143 -32 -240 -38 -427 -92 -637 -184 -1237 -541 -2108 -1993 -2228 -3714 -15
-218 -6 -749 15 -946 52 -466 133 -902 261 -1398 25 -96 45 -181 45 -190 0 -8
-16 -49 -35 -90 -139 -292 -139 -656 -1 -947 24 -52 68 -129 97 -170 100 -145
302 -313 446 -370 39 -16 44 -22 83 -113 144 -331 197 -447 325 -707 79 -159
182 -359 229 -443 83 -147 97 -182 77 -182 -5 0 -43 7 -83 15 -86 19 -287 49
-443 67 -147 17 -647 17 -785 0 -272 -34 -549 -108 -736 -196 -122 -58 -156
-82 -152 -109 7 -45 33 -45 125 5 418 221 1071 293 1751 192 168 -24 391 -71
407 -84 28 -23 105 -159 94 -166 -6 -3 -61 -6 -123 -5 -425 7 -891 -117 -1316
-348 -200 -109 -466 -292 -524 -361 -21 -25 -24 -35 -16 -51 18 -33 46 -22
146 57 185 144 341 240 576 353 315 152 599 232 933 262 147 13 381 5 404 -14
24 -19 91 -129 85 -138 -3 -5 -26 -9 -52 -9 -120 0 -305 -42 -428 -96 -301
-132 -548 -430 -674 -813 -54 -165 -56 -175 -29 -202 l22 -22 24 27 c12 15 23
36 23 46 0 33 60 201 110 306 197 419 526 651 951 671 l125 6 85 -109 c122
-158 197 -245 319 -370 433 -446 811 -582 1180 -424 264 112 561 375 861 763
44 56 87 110 95 121 14 17 25 18 109 12 247 -18 477 -117 653 -281 164 -152
316 -417 387 -676 19 -69 42 -94 68 -74 10 7 19 21 19 32 4 55 -65 252 -139
398 -196 385 -501 615 -893 672 -58 8 -109 19 -114 24 -6 5 9 36 37 78 l46 69
58 8 c126 15 434 -13 648 -61 409 -91 876 -317 1200 -579 80 -64 118 -72 123
-24 3 22 -8 36 -65 83 -208 172 -587 386 -865 489 -300 110 -646 176 -930 176
-48 0 -89 4 -92 8 -3 5 19 47 47 95 60 101 43 93 272 131 756 125 1420 69
1884 -159 62 -30 118 -55 125 -55 7 0 21 9 30 19 17 19 17 21 -7 45 -55 55
-296 153 -506 205 -421 106 -923 120 -1439 40 -181 -28 -232 -33 -232 -24 0 4
41 81 90 171 222 401 473 936 661 1406 33 84 47 106 102 161 143 143 243 323
292 527 21 89 30 278 16 372 l-11 77 54 188 c315 1100 425 1992 345 2798 -159
1605 -987 2968 -2129 3506 -188 88 -174 78 -182 135 -39 272 -332 662 -743
989 -461 366 -1055 635 -1610 729 -224 38 -636 71 -656 52z"/>
</g>
</svg>
